<?xml version="1.0" standalone="no"?>
<!DOCTYPE svg PUBLIC "-//W3C//DTD SVG 20010904//EN"
 "http://www.w3.org/TR/2001/REC-SVG-20010904/DTD/svg10.dtd">
<svg version="1.0" xmlns="http://www.w3.org/2000/svg"
 width="162.000000pt" height="91.000000pt" viewBox="0 0 162.000000 91.000000"
 preserveAspectRatio="xMidYMid meet">

<g transform="translate(0.000000,91.000000) scale(0.100000,-0.100000)"
fill="#000000" stroke="none">
<path d="M826 788 c-14 -19 -16 -71 -16 -363 0 -292 2 -344 16 -363 15 -22 15
-22 355 -22 326 0 340 1 359 20 19 19 20 33 20 363 0 294 -2 346 -16 365 l-15
22 -344 0 -344 0 -15 -22z m702 0 c9 -9 12 -104 12 -365 l0 -353 -22 -8 c-25
-9 -651 -7 -674 2 -12 5 -14 61 -14 359 0 261 3 356 12 365 17 17 669 17 686
0z"/>
<path d="M1074 729 c-74 -28 -128 -79 -166 -157 -29 -59 -33 -76 -33 -147 1
-117 41 -196 137 -268 32 -25 145 -64 154 -54 3 3 0 14 -7 25 -10 16 -10 26
-1 46 11 24 9 26 -27 36 -90 24 -160 116 -161 209 0 35 -6 51 -27 73 l-27 28
29 28 29 27 -24 -28 c-16 -18 -20 -31 -14 -37 13 -13 79 54 69 69 -3 6 -11 8
-17 5 -7 -4 -8 -2 -4 5 6 9 11 9 21 1 16 -13 112 49 138 90 15 24 16 32 5 49
-15 25 -10 25 -74 0z"/>
<path d="M1201 729 c8 -16 8 -28 0 -46 -15 -32 -16 -30 23 -37 18 -4 54 -20
80 -37 35 -23 50 -28 59 -20 10 8 22 2 48 -27 l34 -37 -36 33 c-25 23 -39 30
-44 22 -10 -16 45 -72 65 -65 9 4 6 -3 -7 -17 l-23 -22 -35 34 -35 34 -25 -24
c-17 -16 -22 -27 -15 -34 5 -5 10 -15 10 -22 0 -14 -49 -47 -70 -47 -8 0 -22
-6 -31 -14 -14 -12 -18 -11 -29 2 -7 8 -22 15 -34 15 -30 0 -67 40 -60 65 3
14 -5 30 -26 50 l-31 30 -30 -33 c-32 -35 -30 -50 10 -86 17 -16 23 -17 37 -5
14 11 19 10 35 -11 11 -14 22 -38 26 -53 7 -34 64 -97 86 -97 23 0 87 71 87
97 0 12 11 34 24 50 21 24 26 26 40 14 14 -12 20 -11 41 9 l25 23 0 -39 c0
-93 -63 -189 -141 -216 -40 -14 -63 -58 -47 -93 14 -30 13 -30 81 -5 73 27
127 76 168 152 32 58 34 69 34 153 0 104 -19 156 -81 225 -44 49 -142 100
-192 100 -30 0 -32 -2 -21 -21z m-171 -182 c0 -2 -15 -16 -32 -33 l-33 -29 29
33 c28 30 36 37 36 29z m-5 -47 c3 -5 1 -10 -4 -10 -6 0 -11 5 -11 10 0 6 2
10 4 10 3 0 8 -4 11 -10z m335 -11 c0 -5 -4 -9 -10 -9 -5 0 -10 7 -10 16 0 8
5 12 10 9 6 -3 10 -10 10 -16z m-142 -157 c-2 -23 -8 -27 -33 -27 -24 0 -31 5
-33 24 -5 32 23 54 50 40 13 -7 18 -19 16 -37z"/>
<path d="M1370 525 c19 -19 36 -35 39 -35 3 0 -10 16 -29 35 -19 19 -36 35
-39 35 -3 0 10 -16 29 -35z"/>
<path d="M293 780 c-114 -23 -204 -96 -256 -208 -28 -59 -31 -77 -30 -147 1
-68 5 -89 32 -143 92 -185 294 -258 467 -169 208 107 255 407 89 572 -78 79
-197 116 -302 95z m203 -45 c63 -31 118 -85 152 -150 23 -44 26 -62 26 -150 1
-84 -3 -107 -22 -146 -35 -73 -87 -125 -157 -160 -157 -77 -344 -15 -430 143
-22 41 -30 69 -33 130 -3 54 -1 78 7 78 6 0 11 5 11 11 0 5 -5 7 -11 3 -13 -8
-6 20 21 82 69 161 277 237 436 159z"/>
<path d="M285 740 c-3 -5 -3 -20 1 -34 6 -24 6 -24 25 -5 10 10 19 26 19 34 0
16 -35 21 -45 5z"/>
<path d="M350 720 c0 -16 2 -30 4 -30 2 0 11 -3 20 -6 9 -3 16 -1 16 4 0 6 -8
13 -17 15 -17 4 -17 5 0 6 9 0 17 6 17 11 0 6 -8 10 -17 11 -12 1 -10 4 7 9
l25 8 -27 1 c-25 1 -28 -3 -28 -29z"/>
<path d="M410 725 c0 -9 8 -25 19 -36 19 -20 19 -20 25 7 7 27 -3 50 -11 27
-3 -7 -9 -13 -15 -13 -6 0 -8 7 -4 15 3 8 1 15 -4 15 -6 0 -10 -7 -10 -15z"/>
<path d="M200 715 c-9 -10 -9 -19 0 -35 14 -26 8 -36 -10 -15 -18 22 -33 18
-27 -6 4 -17 3 -19 -6 -10 -19 19 -31 12 -14 -7 21 -23 21 -32 2 -32 -8 0 -15
7 -15 15 0 8 -5 15 -11 15 -6 0 -9 -6 -6 -14 3 -8 1 -17 -6 -19 -8 -3 -5 -10
8 -21 11 -8 15 -16 8 -16 -7 0 -10 -6 -7 -14 7 -18 -8 -27 -26 -16 -12 7 -12
11 1 26 12 15 12 17 -1 12 -8 -2 -15 -16 -15 -29 0 -34 48 -35 53 -1 2 12 8
22 14 22 6 0 8 3 5 7 -4 3 2 12 13 20 11 8 20 24 20 36 0 16 3 18 11 10 14
-14 39 7 39 33 0 14 2 15 17 3 15 -12 16 -12 10 4 -4 10 -7 20 -7 22 0 3 -9 9
-19 14 -14 8 -22 7 -31 -4z m20 -17 c0 -18 -2 -20 -9 -8 -6 8 -7 18 -5 22 9
14 14 9 14 -14z"/>
<path d="M472 703 c-16 -28 -15 -34 2 -27 9 4 16 -2 18 -16 3 -20 5 -19 22 10
18 32 18 32 -2 26 -15 -5 -21 -2 -24 11 -3 16 -5 16 -16 -4z"/>
<path d="M525 660 c-17 -19 -17 -22 -3 -37 30 -29 74 10 48 42 -16 20 -23 19
-45 -5z m35 -14 c0 -8 -4 -17 -9 -21 -12 -7 -24 12 -16 25 9 15 25 12 25 -4z"/>
<path d="M265 642 c-46 -22 -90 -64 -111 -105 -22 -42 -28 -120 -14 -171 46
-167 264 -216 375 -84 44 52 57 94 53 169 -4 79 -35 134 -99 176 -55 36 -145
42 -204 15z m120 -1 c3 -5 1 -12 -5 -16 -19 -12 -10 -25 30 -42 22 -10 40 -20
40 -24 0 -11 44 -2 48 10 3 8 -4 10 -21 7 -21 -4 -25 -1 -23 19 1 19 4 21 19
13 17 -9 77 -85 77 -97 0 -3 -11 -7 -25 -7 -14 -1 -22 2 -19 7 3 5 0 9 -6 9
-6 0 -9 4 -6 9 3 5 -1 11 -9 15 -9 3 -15 0 -15 -9 0 -8 4 -15 10 -15 5 0 13
-12 16 -26 5 -19 9 -22 15 -12 7 10 9 10 9 -2 0 -9 3 -11 8 -5 19 27 31 13 30
-38 -1 -28 -3 -44 -6 -34 -2 12 -11 17 -25 15 -30 -4 -35 -43 -8 -58 12 -6 21
-7 21 -1 0 5 -7 11 -15 15 -8 3 -15 13 -14 23 0 11 3 13 6 5 2 -6 8 -10 13 -7
15 9 22 -33 9 -57 -15 -29 -59 -77 -83 -90 -10 -5 -16 -6 -13 -1 2 4 -4 17
-14 27 -21 22 -23 18 -10 -17 8 -21 6 -26 -12 -31 -68 -18 -144 3 -199 55 -34
33 -40 42 -28 49 23 15 34 12 20 -5 -10 -12 -10 -19 -2 -27 13 -13 42 -4 42
13 0 8 -5 7 -16 -2 -15 -12 -16 -11 -11 6 8 25 -7 50 -23 40 -9 -5 -11 -4 -6
3 4 7 2 12 -3 12 -6 0 -11 -8 -11 -17 0 -15 -2 -16 -10 -3 -13 20 -13 50 1 50
5 0 7 -4 4 -10 -3 -5 3 -10 14 -10 12 0 21 5 21 10 0 6 -5 10 -10 10 -7 0 -7
6 0 20 6 11 8 31 6 45 -3 14 0 25 5 25 5 0 9 9 9 19 0 10 7 21 15 25 8 3 14
11 13 17 -2 6 6 13 17 15 11 1 21 8 23 14 2 5 7 8 12 5 5 -3 15 2 23 10 12 11
17 12 21 2 4 -6 4 3 1 21 -4 29 -2 32 20 32 13 0 26 -4 30 -9z m-65 -12 c0 -5
-4 -7 -10 -4 -5 3 -10 -1 -10 -11 0 -13 -3 -14 -15 -4 -11 9 -15 9 -15 1 0 -7
-5 -9 -11 -5 -8 4 -9 -1 -4 -17 7 -23 7 -24 -9 -4 -14 18 -15 19 -16 2 0 -11
-5 -15 -11 -11 -7 4 -9 0 -5 -14 6 -17 3 -19 -14 -15 -22 6 -26 -7 -8 -25 9
-9 8 -12 -6 -12 -9 0 -15 -4 -12 -9 4 -5 0 -12 -6 -14 -10 -4 -9 -8 2 -16 13
-9 13 -11 -2 -11 -10 0 -18 -7 -18 -15 0 -8 5 -15 11 -15 5 0 8 4 5 8 -3 5 1
9 8 9 20 0 8 -24 -15 -30 -24 -6 -25 11 -4 79 20 69 97 141 153 143 6 1 12 -4
12 -10z m107 3 c8 -5 8 -11 -1 -24 -9 -12 -16 -14 -27 -7 -11 8 -11 12 -1 16
6 2 10 9 6 14 -6 11 6 12 23 1z"/>
<path d="M317 553 c-28 -4 -28 -5 -11 -24 16 -17 16 -19 1 -19 -10 0 -17 -4
-17 -10 0 -5 11 -10 25 -10 20 0 25 -5 25 -25 0 -28 -16 -26 -65 10 l-30 22 0
-63 c0 -38 4 -59 9 -54 12 12 57 -31 46 -45 -5 -7 14 -10 56 -11 43 0 61 3 54
10 -15 15 -12 29 4 23 9 -4 16 3 20 15 4 16 8 19 18 10 10 -8 13 2 13 52 l0
63 -39 -29 c-48 -34 -56 -35 -56 -3 0 18 5 25 19 25 11 0 23 5 26 10 3 6 -2
10 -11 10 -16 0 -16 1 1 20 18 20 17 20 -8 20 -14 0 -31 2 -39 3 -7 2 -26 2
-41 0z m-24 -108 c18 -13 18 -14 -2 -24 -26 -15 -26 -15 -29 14 -2 28 5 31 31
10z m155 -9 c0 -18 -5 -23 -17 -19 -30 11 -32 15 -14 29 25 19 31 17 31 -10z
m-108 -23 c0 -10 -5 -25 -10 -33 -8 -13 -11 -12 -24 5 -13 18 -12 21 7 32 28
16 27 16 27 -4z m71 -11 c-6 -2 -11 -10 -11 -19 0 -26 -25 -8 -28 20 -3 26 -2
27 23 15 15 -7 22 -14 16 -16z"/>
<path d="M506 536 c3 -9 11 -16 16 -16 13 0 5 23 -10 28 -7 2 -10 -2 -6 -12z"/>
<path d="M525 450 c-19 -8 -19 -9 3 -9 12 -1 22 4 22 9 0 6 -1 10 -2 9 -2 0
-12 -4 -23 -9z"/>
<path d="M482 348 c-7 -7 -12 -18 -12 -25 0 -7 -7 -13 -15 -13 -8 0 -15 -8
-15 -17 0 -15 2 -16 10 -3 5 8 12 11 16 7 4 -3 1 -14 -7 -23 -12 -15 -12 -17
1 -12 8 2 16 14 18 26 3 21 14 27 37 22 5 -1 1 9 -10 21 l-20 22 23 -12 c12
-6 22 -8 22 -2 0 5 -7 12 -16 15 -20 8 -18 8 -32 -6z"/>
<path d="M251 286 c-16 -19 -6 -36 20 -36 15 0 20 6 17 22 -4 27 -21 33 -37
14z m29 -16 c0 -5 -4 -10 -10 -10 -5 0 -10 5 -10 10 0 6 5 10 10 10 6 0 10 -4
10 -10z"/>
<path d="M318 262 c-18 -21 7 -40 32 -24 12 7 20 8 20 2 0 -5 7 -10 15 -10 9
0 15 9 15 24 0 22 -4 24 -36 23 -19 -1 -40 -8 -46 -15z m32 -12 c0 -5 -4 -10
-10 -10 -5 0 -10 5 -10 10 0 6 5 10 10 10 6 0 10 -4 10 -10z"/>
<path d="M573 611 c-29 -24 -29 -31 -2 -31 18 0 19 -2 9 -15 -17 -21 0 -18 29
4 24 18 24 19 3 25 -13 4 -19 13 -15 22 7 18 3 17 -24 -5z"/>
<path d="M613 533 c-23 -4 -32 -23 -12 -23 7 0 17 -7 23 -15 16 -21 40 -3 31
24 -3 11 -9 20 -13 20 -4 -1 -17 -4 -29 -6z"/>
<path d="M55 512 c-3 -3 3 -14 12 -24 16 -18 16 -18 0 -12 -10 3 -17 1 -17 -5
0 -6 10 -11 23 -12 13 0 16 -2 7 -6 -8 -2 -22 -7 -30 -10 -12 -4 -12 -7 4 -19
11 -8 14 -14 8 -14 -7 0 -12 -4 -12 -10 0 -5 14 -10 30 -10 33 0 40 14 13 24
-11 5 -13 10 -7 14 20 13 22 37 5 56 -15 18 -15 19 2 13 9 -4 17 -3 17 2 0 10
-47 21 -55 13z"/>
<path d="M600 445 c0 -14 5 -25 11 -25 6 0 9 7 5 15 -3 8 -1 15 4 15 6 0 10
-8 11 -17 0 -15 2 -15 9 2 7 17 9 17 9 3 1 -28 21 -21 21 7 0 22 -4 25 -35 25
-31 0 -35 -3 -35 -25z"/>
<path d="M605 401 c3 -6 15 -11 25 -11 10 0 21 -8 24 -17 3 -11 4 -7 3 7 -2
20 -8 26 -31 28 -18 2 -26 0 -21 -7z"/>
<path d="M99 367 c12 -15 5 -27 -16 -27 -7 0 -13 7 -13 15 0 8 -5 15 -11 15
-16 0 -6 -31 13 -44 14 -8 21 -7 34 6 17 17 13 48 -7 48 -8 0 -9 -4 0 -13z"/>
<path d="M601 338 c10 -18 9 -20 -5 -15 -9 4 -16 3 -16 -2 0 -10 50 -25 58
-17 2 3 -1 13 -9 23 -12 15 -12 16 4 10 9 -3 17 -2 17 2 0 10 -24 21 -46 21
-12 0 -13 -4 -3 -22z"/>
<path d="M119 306 c11 -13 12 -19 2 -29 -10 -9 -16 -8 -28 8 -14 20 -15 20
-11 0 2 -10 12 -22 23 -25 13 -3 20 -14 20 -30 0 -18 6 -26 20 -28 11 -2 25
-12 30 -24 15 -32 29 -32 48 2 10 16 13 30 8 30 -6 0 -11 -4 -11 -9 0 -4 -11
-6 -25 -3 -20 3 -23 7 -15 22 11 21 -12 52 -33 44 -8 -3 -13 5 -12 22 0 15 -7
29 -15 32 -13 5 -13 3 -1 -12z m51 -70 c0 -8 -5 -18 -11 -22 -14 -8 -33 11
-25 25 10 16 36 13 36 -3z m30 -56 c0 -5 -2 -10 -4 -10 -3 0 -8 5 -11 10 -3 6
-1 10 4 10 6 0 11 -4 11 -10z"/>
<path d="M556 283 c-4 -9 -2 -21 4 -27 7 -7 10 -3 10 12 0 26 18 29 27 6 3 -9
0 -20 -8 -25 -11 -7 -10 -9 4 -9 23 0 33 26 17 45 -17 20 -46 19 -54 -2z"/>
<path d="M530 243 c0 -6 7 -16 15 -23 8 -7 12 -16 9 -21 -9 -15 13 -10 26 6
10 12 10 15 0 15 -8 0 -22 7 -32 17 -10 9 -18 11 -18 6z"/>
<path d="M500 212 c0 -10 -4 -22 -10 -28 -5 -5 -5 -15 -1 -23 7 -10 13 -11 30
-2 20 11 20 13 6 41 -18 34 -25 38 -25 12z m20 -32 c0 -5 -5 -10 -11 -10 -5 0
-7 5 -4 10 3 6 8 10 11 10 2 0 4 -4 4 -10z"/>
<path d="M316 165 c-30 -28 -32 -35 -11 -35 8 0 15 -4 15 -9 0 -24 41 -22 71
3 17 14 25 26 17 26 -7 0 -19 9 -26 20 -16 26 -33 25 -66 -5z m64 -5 c0 -5
-11 -10 -25 -10 -14 0 -25 5 -25 10 0 6 11 10 25 10 14 0 25 -4 25 -10z m-11
-40 c-7 -5 -19 -6 -26 -3 -11 5 -12 8 -2 13 7 5 19 6 26 3 11 -5 12 -8 2 -13z"/>
</g>
</svg>
