<svg width="141" height="63" viewBox="0 0 141 63" fill="none" xmlns="http://www.w3.org/2000/svg">
<path d="M115.039 7.87502C110.478 9.10002 105.335 12.075 102.266 15.1375L99.5294 17.85V12.8625V7.87502H74.2323H48.9353V11.025V14.0875L46.3641 12.1625C41.5535 8.57502 37.2406 7.87502 20.1547 7.87502H4.14703V34.125V60.375H13.2706H22.3941V53.025V45.7625L31.1859 45.2375C38.2359 44.8875 40.6412 44.3625 43.7929 42.7C49.1841 39.8125 52.4188 34.65 52.9165 28.4375L53.2482 23.625H59.3859H65.5235V42V60.375H74.647H83.7706V42V23.625H89.9912C94.47 23.625 96.2117 23.975 96.1288 24.675C96.1288 25.2875 95.797 27.65 95.4653 30.0125C94.6359 35.175 95.7141 42.7875 97.8706 47.25C103.096 58.0125 118.025 63.6125 132.706 60.2875L136.853 59.325V52.325C136.853 46.025 136.687 45.4125 135.443 45.9375C131.794 47.425 125.158 47.425 121.592 46.025C118.606 44.8 117.528 43.75 116.201 40.775C112.966 33.775 114.874 25.55 120.514 22.3125C122.836 21 124.495 20.825 130.135 21.2625L136.853 21.7V15.3125C136.853 10.0625 136.604 8.83752 135.443 8.40002C132.955 7.35002 118.357 7.00002 115.039 7.87502ZM31.02 21C32.2641 21.4375 33.5912 22.8375 34.0888 23.975C36.2453 28.9625 32.43 33.25 25.7117 33.25H22.3941V26.6875V20.125H25.6288C27.4535 20.125 29.8588 20.475 31.02 21Z" fill="#02007B"/>
</svg>
